<svg xmlns="http://www.w3.org/2000/svg" width="128" height="36" viewBox="0 0 128 36">
  <metadata><?xpacket begin="﻿" id="W5M0MpCehiHzreSzNTczkc9d"?>
<x:xmpmeta xmlns:x="adobe:ns:meta/" x:xmptk="Adobe XMP Core 5.6-c142 79.160924, 2017/07/13-01:06:39        ">
   <rdf:RDF xmlns:rdf="http://www.w3.org/1999/02/22-rdf-syntax-ns#">
      <rdf:Description rdf:about=""/>
   </rdf:RDF>
</x:xmpmeta>
                                                                                                    
                                                                                                    
                                                                                                    
                                                                                                    
                                                                                                    
                                                                                                    
                                                                                                    
                                                                                                    
                                                                                                    
                                                                                                    
                                                                                                    
                                                                                                    
                                                                                                    
                                                                                                    
                                                                                                    
                                                                                                    
                                                                                                    
                                                                                                    
                                                                                                    
                                                                                                    
                           
<?xpacket end="w"?></metadata>
<defs>
    <style>
      .cls-1, .cls-3 {
        fill: #39d9e0;
      }

      .cls-2 {
        fill: #003248;
      }

      .cls-2, .cls-3 {
        fill-rule: evenodd;
      }
    </style>
  </defs>
  <circle id="dot" class="cls-1" cx="123" cy="27" r="2"/>
  <path id="iDent" class="cls-2" d="M49.13,28.15a1.6,1.6,0,0,0,1.08-.36,1.345,1.345,0,0,0,.42-1.08V14.53a1.393,1.393,0,0,0-.42-1.095,1.563,1.563,0,0,0-1.08-.375,1.618,1.618,0,0,0-1.1.375A1.366,1.366,0,0,0,47.6,14.53V26.71a1.32,1.32,0,0,0,.435,1.08,1.659,1.659,0,0,0,1.1.36h0Zm0-18.03a1.932,1.932,0,0,0,1.38-.48,1.65,1.65,0,0,0,.51-1.26A1.582,1.582,0,0,0,50.5,7.135a2.258,2.258,0,0,0-2.745,0,1.6,1.6,0,0,0-.51,1.245,1.648,1.648,0,0,0,.51,1.26,1.931,1.931,0,0,0,1.38.48h0ZM56.75,28h5.88q5.13,0,7.95-2.775T73.4,17.41q0-5.04-2.82-7.8T62.63,6.85H56.75a1.521,1.521,0,0,0-1.125.405,1.48,1.48,0,0,0-.4,1.095V26.5a1.479,1.479,0,0,0,.4,1.095A1.521,1.521,0,0,0,56.75,28h0Zm1.56-2.58V9.43h4.14q7.8,0,7.8,7.98,0,8.01-7.8,8.01H58.31ZM88.7,24.31a1.641,1.641,0,0,0-.675.2q-0.4.2-.495,0.255a13.888,13.888,0,0,1-1.71.78,5.526,5.526,0,0,1-1.92.3q-4.17,0-4.47-4.65H88.7a1.011,1.011,0,0,0,1.08-1.2,7.315,7.315,0,0,0-1.71-5.1A5.957,5.957,0,0,0,83.419,13a6.963,6.963,0,0,0-3.645.96,6.507,6.507,0,0,0-2.49,2.7,8.679,8.679,0,0,0-.885,3.99,7.51,7.51,0,0,0,2.01,5.535A7.386,7.386,0,0,0,83.9,28.21a9.317,9.317,0,0,0,2.385-.33,9.506,9.506,0,0,0,2.3-.93,1.725,1.725,0,0,0,1.08-1.47,1.284,1.284,0,0,0-.27-0.84,0.853,0.853,0,0,0-.69-0.33h0Zm-5.22-9.09a3.319,3.319,0,0,1,2.655,1.1,5.015,5.015,0,0,1,1.035,3.135h-7.74a5.182,5.182,0,0,1,1.26-3.12,3.661,3.661,0,0,1,2.79-1.11h0ZM101,13a6.073,6.073,0,0,0-2.91.69,4.869,4.869,0,0,0-2.01,2.01V14.47a1.381,1.381,0,0,0-.39-1.02,1.421,1.421,0,0,0-1.05-.39,1.544,1.544,0,0,0-1.095.4,1.351,1.351,0,0,0-.435,1.035V26.71a1.362,1.362,0,0,0,.42,1.05,1.567,1.567,0,0,0,1.11.39,1.514,1.514,0,0,0,1.095-.39,1.389,1.389,0,0,0,.405-1.05V19.66a4.2,4.2,0,0,1,1.11-3.06,3.917,3.917,0,0,1,2.94-1.14,2.84,2.84,0,0,1,2.3.87,4.183,4.183,0,0,1,.735,2.73v7.65a1.389,1.389,0,0,0,.405,1.05,1.513,1.513,0,0,0,1.095.39,1.594,1.594,0,0,0,1.125-.375,1.379,1.379,0,0,0,.405-1.065v-7.8q0-5.91-5.25-5.91h0Zm16.56,12.84-0.84-.06a2.531,2.531,0,0,1-1.785-.75,3.063,3.063,0,0,1-.585-2.07V15.7h2.97a1.439,1.439,0,0,0,.975-0.3,1.251,1.251,0,0,0,0-1.725,1.394,1.394,0,0,0-.975-0.315h-2.97V10.27a1.4,1.4,0,0,0-.42-1.08,1.569,1.569,0,0,0-1.11-.39,1.512,1.512,0,0,0-1.095.39,1.429,1.429,0,0,0-.405,1.08v3.09h-1.8a1.393,1.393,0,0,0-.975.315,1.193,1.193,0,0,0,.975,2.025h1.8v7.05a5.513,5.513,0,0,0,1.2,3.855,5.251,5.251,0,0,0,3.63,1.485l0.81,0.06a2.175,2.175,0,0,0,1.365-.255,1.036,1.036,0,0,0,.465-0.915,1.075,1.075,0,0,0-.285-0.8,1.512,1.512,0,0,0-.945-0.345h0Z"/>
  <path id="tooth" class="cls-3" d="M35,3.71A9.922,9.922,0,0,0,27.442.675c-2.232,0-4.818,1.417-6.577,2.387a10.4,10.4,0,0,1-1.775.868,10.3,10.3,0,0,1-1.767-.866C15.568,2.094,13.346.675,11.1,0.675A10.1,10.1,0,0,0,3.539,3.71,10.489,10.489,0,0,0,1.09,11.044,41.449,41.449,0,0,0,4.779,26.359,37.109,37.109,0,0,0,8.1,32.545c1.3,1.87,2.416,2.78,3.412,2.78a1.82,1.82,0,0,0,1.7-1.442c0.441-1.219.838-2.618,1.258-4.1,1.113-3.928,2.319-8.816,4.549-8.816H19.16c0.992,0,1.879.849,2.714,2.6a39.5,39.5,0,0,1,2.243,6.259c0.4,1.473.782,2.864,1.209,4.061a1.8,1.8,0,0,0,1.682,1.434c0.99,0,2.105-.923,3.409-2.822a38.4,38.4,0,0,0,3.325-6.248A39.743,39.743,0,0,0,37,11.044c0-2.818-.188-5.307-2-7.334M21.859,5.724c1.492-.827,3.45-2.38,6.3-2.38,5.187,0,5.869,4.18,5.869,8.762,0,6.224-5.228,23.393-7.477,15.157,0.2,0.721-2.115-9.326-7.533-9.326-5.077,0-7.358,9.15-7.431,9.636-1.682,5.935-7.379-9.014-7.379-15.448,0-4.581,1.27-8.69,6.709-8.69,5.38,0,7.262,4.7,12.4,4.7,3.207,0,3.662-.752,3.662-0.752S24.685,8.027,21.859,5.724Z"/>
</svg>
